<?xml version="1.0" encoding="utf-8"?>
<!-- Generator: Adobe Illustrator 25.0.0, SVG Export Plug-In . SVG Version: 6.00 Build 0)  -->
<svg version="1.1" id="illustration" xmlns="http://www.w3.org/2000/svg" xmlns:xlink="http://www.w3.org/1999/xlink" x="0px"
	 y="0px" viewBox="0 0 1600 1200" style="enable-background:new 0 0 1600 1200;" xml:space="preserve">
<style type="text/css">
	.st0{opacity:0.79;fill:#A2B6DB;enable-background:new    ;}
	.st1{fill:#E6BD54;}
	.st2{opacity:0.25;fill:#7995C6;enable-background:new    ;}
	.st3{fill:#FFFFFF;}
	.st4{fill:#CED7F6;}
	.st5{fill:#EDF1FC;}
	.st6{fill:#FFFFFF;stroke:#000000;stroke-miterlimit:10;}
	.st7{fill:#E9E4FB;}
	.st8{fill:#7A71DC;}
	.st9{fill:#FFC876;}
	.st10{fill:#05CDCD;stroke:#050505;stroke-miterlimit:10;}
	.st11{fill:#AC6DFC;}
	.st12{fill:#6781D5;}
	.st13{fill:#19377C;}
	.st14{fill:#84CFA6;}
	.st15{fill:#191954;}
	.st16{fill:#FFC035;}
	.st17{fill:none;stroke:#050505;stroke-miterlimit:10;}
	.st18{fill:#B1ADF7;}
	.st19{fill:#DBD7FA;}
	.st20{opacity:0.78;fill:#AFB7E0;enable-background:new    ;}
	.st21{fill:#C1D3FF;}
	.st22{fill:#B1BCFC;}
	.st23{fill:#EDDD7D;}
	.st24{opacity:0.5;fill:#ACCCF3;enable-background:new    ;}
	.st25{fill:none;stroke:#000000;stroke-miterlimit:10;}
	.st26{fill:#8E79A0;}
	.st27{fill:#764392;}
	.st28{fill:#7C7CE5;}
	.st29{fill:#FBDA66;}
	.st30{fill:#A06CEA;}
	.st31{fill:#FFE8FF;}
	.st32{fill:#ACCCF3;}
	.st33{fill:#FEF1F8;}
	.st34{fill:#BFD1FF;}
	.st35{fill:#2555B7;}
	.st36{fill:none;stroke:#161693;stroke-miterlimit:10;}
	.st37{fill:#E4EFF9;stroke:#000000;stroke-miterlimit:10;}
	.st38{opacity:0.68;fill:#E3E6E8;enable-background:new    ;}
	.st39{fill:#3F65E2;}
	.st40{fill:#CA1773;}
	.st41{fill:#FED5F5;}
	.st42{fill:#D199E2;}
	.st43{opacity:0.69;fill:#3F65E2;enable-background:new    ;}
	.st44{opacity:0.33;fill:#6160E2;enable-background:new    ;}
	.st45{fill:#C1D7EF;}
	.st46{opacity:0.82;}
	.st47{fill:#FE6666;}
	.st48{fill:none;stroke:#050505;stroke-width:0.75;stroke-miterlimit:10;}
	.st49{fill:#FFFFFF;stroke:#050505;stroke-width:0.75;stroke-miterlimit:10;}
	.st50{fill:none;stroke:#020202;stroke-miterlimit:10;}
	.st51{fill:#05CDCD;}
	.st52{fill:#FFFFFF;stroke:#020202;stroke-miterlimit:10;}
	.st53{fill:#000033;}
	.st54{fill:#FF6666;}
	.st55{fill:#DED8FA;}
	.st56{fill:none;stroke:#C1D7EF;stroke-miterlimit:10;}
	.st57{fill:none;stroke:#C1D7EF;stroke-miterlimit:10;stroke-dasharray:12.143,12.143;}
	.st58{fill:#0C0C4F;stroke:#0C0C4F;stroke-miterlimit:10;}
	.st59{fill:#05D3AB;}
	.st60{stroke:#000000;stroke-miterlimit:10;}
	.st61{fill:#E5AD70;stroke:#000000;stroke-miterlimit:10;}
	.st62{fill:#A36629;stroke:#000000;stroke-miterlimit:10;}
	.st63{fill:#05D3AB;stroke:#050505;stroke-miterlimit:10;}
	.st64{fill:none;stroke:#070707;stroke-miterlimit:10;}
	.st65{stroke:#020202;stroke-miterlimit:10;}
	.st66{fill:#050133;}
	.st67{fill:#070707;stroke:#000000;stroke-miterlimit:10;}
	.st68{fill:#FFFFFF;stroke:#020202;stroke-width:1;stroke-miterlimit:10;}
	.st69{fill:#4F47FD;}
	.st70{fill:#E53076;}
	.st71{fill:none;stroke:#03082B;stroke-miterlimit:10;}
	.st72{fill:none;stroke:#FFFFFF;stroke-miterlimit:10;}
	.st73{stroke:#050505;stroke-miterlimit:10;}
	.st74{fill:#FFFFFF;stroke:#050505;stroke-miterlimit:10;}
	.st75{fill:#D9BF60;}
	.st76{fill:#14338E;}
	.st77{fill:none;stroke:#000000;stroke-width:2;stroke-miterlimit:10;}
	.st78{fill:#FF4C8B;}
	.st79{fill:#0D005F;}
</style>
<g>
	<g>
		<g id="card">
			<path class="st0" d="M371.1,327.54v162.19c0,11.3-9.16,20.46-20.46,20.46H68.02c-11.3,0-20.46-9.16-20.46-20.46V327.54
				c0-11.3,9.16-20.46,20.46-20.46h282.62C361.94,307.08,371.1,316.24,371.1,327.54z"/>
			<rect x="90.69" y="378.98" class="st1" width="52.13" height="50.33"/>
			<path class="st2" d="M116.4,307.08L47.56,398.6v-71.06c0-11.3,9.16-20.46,20.46-20.46L116.4,307.08L116.4,307.08z"/>
			<polygon class="st2" points="260.52,308.48 154.85,510.23 104.66,510.19 205.06,307.08 			"/>
			<path class="st3" d="M270.51,352.4H91.78c-3.58,0-6.48-2.9-6.48-6.48l0,0c0-3.58,2.9-6.48,6.48-6.48h178.73
				c3.58,0,6.48,2.9,6.48,6.48l0,0C276.99,349.5,274.09,352.4,270.51,352.4z"/>
			<path class="st3" d="M297.4,483.24H101.48c-3.97,0-7.19-3.22-7.19-7.19l0,0c0-3.97,3.22-7.19,7.19-7.19H297.4
				c3.97,0,7.19,3.22,7.19,7.19l0,0C304.59,480.02,301.37,483.24,297.4,483.24z"/>
		</g>
		<path id="background_2" class="st4" d="M1457.95,1027.27H257.28V191.99c0-30.07,24.38-54.44,54.44-54.44h1092.37
			c29.75,0,53.86,24.12,53.86,53.86V1027.27z"/>
		<path id="background" class="st5" d="M1391.1,1027.27H305.45v-804.3c0-13.27,10.76-24.03,24.03-24.03h1034.41
			c15.03,0,27.21,12.18,27.21,27.21V1027.27z"/>
		<g id="dash_3">
			<path class="st6" d="M1281.44,821.15H936.43c-11.44,0-20.72-9.28-20.72-20.72V317.02c0-11.44,9.28-20.72,20.72-20.72h345.01
				c11.44,0,20.72,9.28,20.72,20.72v483.41C1302.16,811.87,1292.88,821.15,1281.44,821.15z"/>
			<rect x="971.95" y="327.74" class="st7" width="284.94" height="271"/>
			<rect x="1205.79" y="346.32" class="st6" width="60.39" height="69.69"/>
			<rect x="965.76" y="626.61" class="st6" width="255.51" height="6.19"/>
			<rect x="965.76" y="644.02" class="st8" width="185.56" height="8.46"/>
			<rect x="965.76" y="672.67" class="st6" width="245.46" height="9.12"/>
			<rect x="965.76" y="690.9" class="st9" width="186.21" height="7.81"/>
			<rect x="965.76" y="722.43" class="st6" width="232.28" height="6.19"/>
			<rect x="965.76" y="738.69" class="st10" width="168.79" height="6.97"/>
			<polygon class="st11" points="1221.09,371.66 1218.68,374.41 1232.8,386.46 1255.86,364.08 1252.77,362.36 1233.49,380.61 			"/>
			<g>
				<path class="st12" d="M1078.09,401.13h62.47l28.4,151.77l-28.4,2.45l-28.4-100.37l-22.72,97.92h-31.23
					C1058.21,552.91,1078.96,398.45,1078.09,401.13z"/>
				<polygon class="st13" points="1141.72,407.65 1077.44,407.55 1078.09,401.13 1140.47,401.13 				"/>
			</g>
		</g>
		<g id="dash_2">
			<rect x="363.19" y="678.08" class="st6" width="224.54" height="294.45"/>
			<g id="small_box">
				<rect x="402.03" y="714.94" class="st14" width="38.21" height="30.3"/>
				<rect x="404.2" y="767.74" class="st15" width="38.21" height="30.3"/>
				<rect x="404.2" y="816.35" class="st16" width="38.21" height="30.3"/>
				<rect x="395.53" y="761.16" class="st17" width="38.21" height="30.3"/>
				<rect x="395.53" y="812.06" class="st17" width="38.21" height="30.3"/>
				<line class="st17" x1="447.73" y1="726.39" x2="531.31" y2="726.39"/>
				<line class="st17" x1="448.68" y1="780.13" x2="530.36" y2="780.5"/>
				<line class="st17" x1="448.99" y1="829.11" x2="530.04" y2="829.78"/>
				<line class="st17" x1="402.1" y1="872.67" x2="557.31" y2="872.67"/>
				<line class="st17" x1="400.9" y1="910.55" x2="558.51" y2="910.55"/>
				<rect x="395.53" y="709.78" class="st17" width="38.21" height="30.3"/>
			</g>
		</g>
		<g id="dash_1">
			<path class="st6" d="M867.29,544.56H503.01c-1.92,0-3.49-1.56-3.49-3.49V291.51c0-1.92,1.56-3.49,3.49-3.49h364.28
				c1.92,0,3.49,1.56,3.49,3.49v249.57C870.78,543,869.22,544.56,867.29,544.56z"/>
			<path class="st18" d="M839.45,332.66h-96.66c-3.11,0-5.64-2.52-5.64-5.64v-0.9c0-3.11,2.52-5.64,5.64-5.64h96.66
				c3.11,0,5.64,2.52,5.64,5.64v0.9C845.09,330.14,842.56,332.66,839.45,332.66z"/>
			<ellipse class="st19" cx="718.88" cy="326.42" rx="7.11" ry="6.57"/>
			<path class="st18" d="M839.86,362.95H743.2c-3.11,0-5.64-2.52-5.64-5.64v-0.9c0-3.11,2.52-5.64,5.64-5.64h96.66
				c3.11,0,5.64,2.52,5.64,5.64v0.9C845.5,360.42,842.98,362.95,839.86,362.95z"/>
			<ellipse class="st19" cx="719.29" cy="356.7" rx="7.11" ry="6.57"/>
			<path class="st18" d="M840.5,394.67h-96.66c-3.11,0-5.64-2.52-5.64-5.64v-0.9c0-3.11,2.52-5.64,5.64-5.64h96.66
				c3.11,0,5.64,2.52,5.64,5.64v0.9C846.14,392.14,843.61,394.67,840.5,394.67z"/>
			<ellipse class="st19" cx="719.93" cy="388.42" rx="7.11" ry="6.57"/>
			<rect x="461.23" y="270.1" class="st7" width="136.19" height="58.23"/>
			<rect x="515.51" y="298.72" class="st20" width="136.19" height="53.29"/>
			<rect x="515.5" y="352.02" class="st21" width="161.85" height="57.24"/>
			<rect x="522.62" y="453.59" class="st19" width="74.83" height="74.83"/>
			<rect x="641.33" y="454.15" class="st19" width="74.83" height="74.83"/>
			<rect x="766.37" y="460.71" class="st19" width="74.83" height="74.83"/>
			<path class="st5" d="M543.2,472.67c0,0.83,0,1.5,0,1.5S543.2,473.5,543.2,472.67s0-1.5,0-1.5S543.2,471.85,543.2,472.67z"/>
			<circle class="st18" cx="560.04" cy="491.01" r="20.2"/>
			<circle class="st18" cx="678.75" cy="496.74" r="20.2"/>
			<circle class="st18" cx="803.78" cy="498.12" r="20.2"/>
		</g>
		<g id="box_3">
			<path class="st22" d="M1320.58,264.25H971.75c-3.31,0-5.99-2.68-5.99-5.99v-28.27c0-3.31,2.68-5.99,5.99-5.99h348.83
				c3.31,0,5.99,2.68,5.99,5.99v28.27C1326.57,261.57,1323.89,264.25,1320.58,264.25z"/>
			<rect x="1258.44" y="233.28" class="st23" width="57.3" height="17.03"/>
		</g>
		<path id="box_2" class="st6" d="M318.2,120.55h-60.56c-3.16,0-5.72-2.56-5.72-5.72V55.8c0-3.16,2.56-5.72,5.72-5.72h60.56
			c3.16,0,5.72,2.56,5.72,5.72v59.03C323.92,117.99,321.36,120.55,318.2,120.55z"/>
		<g id="dash">
			<rect x="1201.98" y="703.85" class="st24" width="168.79" height="260.16"/>
			<path class="st3" d="M1401.22,933.81h-146.85c-2,0-3.62-1.62-3.62-3.62V733.02c0-2,1.62-3.62,3.62-3.62h146.85
				c2,0,3.62,1.62,3.62,3.62v197.17C1404.84,932.19,1403.22,933.81,1401.22,933.81z"/>
			<rect x="1279.4" y="795.99" class="st25" width="59.62" height="66.59"/>
			<rect x="1301.08" y="768.11" class="st26" width="52.65" height="7.74"/>
			<rect x="1363.03" y="810.7" class="st27" width="24.78" height="29.42"/>
			<rect x="1284.05" y="887.35" class="st8" width="96.79" height="6.19"/>
			<rect x="1288.7" y="903.61" class="st8" width="68.14" height="3.1"/>
			<rect x="1300.31" y="824.27" class="st8" width="62.37" height="3.46"/>
		</g>
		<g id="dot">
			<ellipse class="st28" cx="334.94" cy="162.46" rx="13.51" ry="14.26"/>
			<ellipse class="st28" cx="381.47" cy="162.46" rx="13.51" ry="14.26"/>
			<ellipse class="st28" cx="428" cy="162.46" rx="13.51" ry="14.26"/>
		</g>
		<g id="box_1">
			<rect x="367.5" y="290.37" class="st3" width="74.25" height="359.5"/>
			<rect x="384.33" y="307.46" class="st29" width="35.54" height="38.27"/>
			<rect x="386.38" y="366.24" class="st30" width="33.49" height="35.54"/>
			<rect x="383.65" y="424.33" class="st31" width="36.22" height="34.17"/>
			<rect x="385.7" y="481.06" class="st32" width="34.17" height="32.12"/>
			<rect x="385.7" y="537.1" class="st27" width="34.17" height="36.22"/>
			<rect x="385.02" y="592.46" class="st33" width="34.86" height="36.22"/>
		</g>
		<g id="gift_bo9x">
			<rect x="270.34" y="73.45" class="st34" width="32.69" height="31.53"/>
			<rect x="286.12" y="72.74" class="st35" width="2.8" height="32.13"/>
			<path class="st36" d="M286.12,72.74c0,0-13.7-1.38-7.79-6.91c5.92-5.53,9.97,5.53,9.97,5.53s4.67-10.37,8.72-6.56
				C301.07,68.6,296.71,74.13,286.12,72.74z"/>
		</g>
		<g id="plant">
			<path class="st6" d="M208.04,1138.3c0,0-102.87-1.1-103.01-1.1c-0.46,0.01-1.78-0.13-2.57-0.61c-6.37-3.85,1.01-21.84,1.64-27.41
				c2.56-22.58-16.69-48.13-1.18-69c3.68-4.96,9.61-8.35,15.66-7.96c14.38,0.93,16.5,17.4,19.87,28.7
				c2.51,8.44,11.23,26.84,22.08,24.67c12.85-2.57,10.58-26.24,11.13-35.78c1-17.47,8.86-35.37,21.91-47.07
				c27.57-24.72,55.83,2.74,77.23,21.51c25.23,22.14,52.96,44.36,86.95,48.43c34.28,4.1,37.23,65.4,37.23,65.4L208.04,1138.3z"/>
			<path class="st25" d="M144.93,1136.88c0,0-37.33-69.82-31.05-92.72"/>
			<line class="st25" x1="121.62" y1="1083.73" x2="130.83" y2="1050.82"/>
			<path class="st25" d="M125.72,1096.64c0,0-20.95-4.79-23.87-9.99"/>
			<path class="st25" d="M128.23,1102.69c0,0-23.46-4.8-24.71-8.69"/>
			<path class="st25" d="M157.59,1085.02c0,0,27.61,32.91,25.9,51.07"/>
			<path class="st25" d="M195.65,1135.68c4.32-31.7,9.45-63.83,18.3-94.55c3.79-13.16,12.77-33.84,25.1-41.14"/>
			<path class="st25" d="M214.26,1037.56c0,0-18.82-22.08-15.03-35.91"/>
			<path class="st25" d="M211.72,1050.53c0,0,24.32-4.28,43.2-18.95"/>
			<path class="st25" d="M210.45,1057.44c0,0,31.02-6,39.42-15.06"/>
			<path class="st25" d="M204.54,1083.38c0,0-29.73-14.75-32.64-28.59"/>
			<path class="st25" d="M202.43,1090.72c0,0-22.2-9.12-27.63-20.8"/>
			<path class="st25" d="M286.35,1135.7c0,0,3.64-45.91,21.46-70.62"/>
			<path class="st25" d="M293.48,1101.9c0,0,17.75-7.09,49.24-30.71"/>
			<path class="st25" d="M290.04,1112.53c0,0,26.91-4.72,65.84-38.39"/>
			<path class="st25" d="M286.04,1126.7c0,0-24.05-17.72-32.06-44.3"/>
		</g>
		<g id="box">
			<path class="st6" d="M915.96,799.05H698.24c-8.3,0-15.02-6.73-15.02-15.02V631.27c0-8.3,6.73-15.02,15.02-15.02h217.72
				c8.3,0,15.02,6.73,15.02,15.02v152.76C930.98,792.33,924.26,799.05,915.96,799.05z"/>
			<path class="st6" d="M930.81,630.61h-247.6v-9.28c0-2.8,2.27-5.07,5.07-5.07H925.8c2.77,0,5.02,2.25,5.02,5.02v9.33H930.81z"/>
			<path class="st37" d="M931.14,732.63h-49.51c-1.98,0-3.58-1.6-3.58-3.58V624.37c0-1.98,1.6-3.58,3.58-3.58h49.51
				c1.98,0,3.58,1.6,3.58,3.58v104.68C934.72,731.03,933.12,732.63,931.14,732.63z"/>
			<rect x="702.63" y="750.08" class="st38" width="133.18" height="6.19"/>
			<rect x="703.41" y="767.11" class="st38" width="108.4" height="4.65"/>
			<path class="st39" d="M748.21,644.56c1.78,3.55,33.47,3.51,33.47,0.45l8.93,6.69l31.24,1.34v15.62h-27.67l-7.14,12.05l0.89,52.21
				h-50.87l1.34-54.89l-5.36-9.37l-23.21,0.45l0.89-15.17l21.87-0.89L748.21,644.56z"/>
			<rect x="845.55" y="649.5" class="st40" width="15.11" height="15.87"/>
			<rect x="845.55" y="675.95" class="st41" width="13.6" height="9.07"/>
			<rect x="845.55" y="697.87" class="st42" width="15.11" height="13.6"/>
			<circle class="st43" cx="902.22" cy="644.97" r="13.6"/>
			<ellipse class="st32" cx="902.35" cy="681.79" rx="12" ry="12.14"/>
			<rect x="853.07" y="730.35" class="st44" width="39.27" height="12.43"/>
		</g>
		<g id="line">
			<rect x="1477.24" y="575.93" class="st45" width="9.99" height="52.46"/>
			<rect x="1499.73" y="592.17" class="st45" width="11.24" height="96.18"/>
		</g>
		<g id="round" class="st46">
			<path class="st25" d="M305.9,339.22c1.98,3.89,4.8,8.34,9.38,8.55c5.02,0.23,8.32-4.74,10.27-9.09
				c1.95-4.35,4.56-9.47,9.54-10.07c5.35-0.65,9.33,4.35,12.03,8.74s6.58,9.43,11.94,8.91c4.13-0.4,6.97-4.03,8.81-7.52
				s3.42-7.41,6.89-9.55s9.48-0.85,9.8,3.03"/>
			<path class="st25" d="M1465.78,777.27c1.24,4.08,2.53,8.25,4.97,11.55c2.44,3.29,6.32,5.54,9.98,4.52
				c5.99-1.68,7.9-10.23,12.24-15.26c4.82-5.59,13.38-6.2,18.77-1.33c2.55,2.3,4.33,5.54,6.72,8.06s5.88,4.31,8.86,2.84
				c5.15-2.56,5.79-13.07,11.4-13.16"/>
			<g id="angle_1_">
				<polygon class="st47" points="1439.62,163.18 1415.93,142.7 1435.19,119.54 1458.88,140.01 				"/>
				<g>
					<polyline class="st48" points="642.6,104.22 677.36,72.8 728.1,107.84 					"/>
					<ellipse class="st49" cx="642.6" cy="104.22" rx="3.13" ry="3.57"/>
					<ellipse class="st49" cx="677.36" cy="72.8" rx="4.81" ry="5.32"/>
					<ellipse class="st49" cx="728.1" cy="107.84" rx="4.46" ry="4.65"/>
				</g>
				<polygon class="st50" points="1432.93,164.89 1409.24,144.41 1428.51,121.25 1452.2,141.72 				"/>
				<polygon class="st51" points="206.44,932.39 220.4,940.65 234.36,948.9 219.7,957.09 205.03,965.27 205.74,948.83 				"/>
				<polygon class="st52" points="1449.59,470.24 1450.64,484.2 1451.7,498.15 1439.21,491.94 1426.71,485.73 1438.15,477.98 				
					"/>
				<ellipse class="st53" cx="424.46" cy="111.82" rx="8.94" ry="9.27"/>
				<ellipse class="st52" cx="872.26" cy="80.01" rx="5.76" ry="5.87"/>
				<ellipse class="st54" cx="148.33" cy="446.8" rx="16.03" ry="15.97"/>
				<ellipse class="st50" cx="145.93" cy="441.58" rx="16.03" ry="15.97"/>
				<polygon class="st50" points="202.14,938.35 216.1,946.6 230.06,954.86 215.4,963.04 200.74,971.22 201.44,954.79 				"/>
			</g>
			<ellipse class="st55" cx="792.67" cy="624.7" rx="8.81" ry="9.31"/>
			<ellipse class="st25" cx="196.91" cy="464.74" rx="4.41" ry="4.66"/>
			<ellipse class="st25" cx="374.03" cy="482.66" rx="4.07" ry="3.99"/>
			<ellipse class="st25" cx="421.51" cy="554.34" rx="5.08" ry="5.32"/>
			<ellipse class="st25" cx="434.75" cy="384.37" rx="5.08" ry="5.32"/>
			<path class="st25" d="M1022.47,702.68c2.44,0,4.41,1.93,4.41,4.32s-1.97,4.32-4.41,4.32s-4.41-1.93-4.41-4.32
				S1020.03,702.68,1022.47,702.68z"/>
			<ellipse class="st25" cx="1171.51" cy="190.19" rx="5.08" ry="5.32"/>
			<ellipse class="st25" cx="954.71" cy="200.8" rx="4.41" ry="4.32"/>
			<ellipse class="st25" cx="1360.84" cy="376.64" rx="5.08" ry="5.32"/>
			<ellipse class="st25" cx="1357.1" cy="637.27" rx="4.41" ry="4.32"/>
			<ellipse class="st51" cx="196.24" cy="604.9" rx="6.39" ry="7.2"/>
			<ellipse class="st51" cx="1041.38" cy="220.52" rx="6.39" ry="7.2"/>
			<ellipse class="st25" cx="644.57" cy="812.68" rx="3.61" ry="3.89"/>
			<ellipse class="st25" cx="370.98" cy="974.96" rx="4.29" ry="4.4"/>
			<ellipse class="st25" cx="552" cy="951.72" rx="4.29" ry="4.4"/>
			<ellipse class="st25" cx="1401" cy="764.13" rx="3.61" ry="3.89"/>
			<ellipse class="st25" cx="1336.43" cy="746.95" rx="4.29" ry="4.4"/>
			<ellipse class="st25" cx="1375.82" cy="906.97" rx="4.29" ry="4.4"/>
			<ellipse class="st25" cx="229.25" cy="818.97" rx="4.74" ry="4.99"/>
			<ellipse class="st25" cx="542.47" cy="240.27" rx="8.81" ry="8.65"/>
		</g>
		<g>
			<g>
				<path class="st56" d="M210.39,304.09c0,0-1.23-1.79-3.13-5.11"/>
				<path class="st57" d="M201.64,288.22c-15.09-31.75-38.22-105.78,30.31-172.54"/>
				<path class="st56" d="M236.37,111.5c1.45-1.33,2.95-2.67,4.48-3.99"/>
			</g>
		</g>
		<g id="boy">
			<g>
				<path class="st52" d="M732.09,463.98l15.14-9.94c1.14-0.75,1.81-2.03,1.78-3.4c-0.18-7.63-0.43-32.65,3.84-32.65
					c4.09,0,9.85,15.2,11.86,20.88c0.46,1.29,1.62,2.18,2.98,2.27l14.2,1.01c1.89,0.13,3.51,1.42,4.07,3.24
					c2.09,6.8,6.13,23.72-0.71,36.26c-0.84,1.54-2.1,2.82-3.64,3.66l-4.17,2.31c-1.69,0.93-3.58,1.44-5.5,1.49l-27.08,0.59
					c-1.33,0.03-2.61,0.57-3.56,1.51l-10.47,10.38L732.09,463.98z"/>
				<path class="st25" d="M757.57,451.1c-1.16,1.46-1.85,3.28-1.94,5.15c-0.03,0.59,0,1.2,0.24,1.73c0.34,0.77,0.96,1.55,1.78,1.71
					c4.19,0.85,7.31,1.08,12.85,0.59c4.38-0.39,9.13-1.78,13.17-3.94c1.43-0.76,3.16-1.95,4.45-2.87"/>
				<path class="st25" d="M758.4,459.77c-1.66,1.08-3.88,4.12-3.81,6.11c0.09,2.38,2.37,4.05,4.59,4.88
					c7.19,2.66,15.17,0.2,22.29-2.63c2.83-1.13,6.42-2.28,7.72-5.04"/>
				<path class="st25" d="M761.6,471.51c-1.88,0.38-2.87,3.11-2.53,5.01c0.34,1.9,1.89,3.41,3.66,4.15c1.77,0.74,3.75,0.81,5.66,0.7
					c6.96-0.39,14.33-2.81,19.76-7.21"/>
				<path class="st25" d="M768.4,481.47c-1.38,0.25-2.22,1.73-2.2,3.14c0.02,1.68,1.92,2.59,3.52,3.11
					c1.61,0.52,3.22,1.25,4.89,0.98"/>
				<path class="st25" d="M757.46,451.11c0.67-0.49,8.8-2.33,13.38-2.72c0.7-0.06,1.58-0.27,1.67-0.97
					c0.07-0.49-0.33-0.91-0.72-1.22c-2.11-1.7-3.73-2.89-5.14-5.22"/>
			</g>
			<path class="st58" d="M448.38,1089.55l-0.72,48.23l86.92,1.82c0,0,9.23-8.09-24.68-20.97c0,0-16.16-2.79-20.96-24.03l-3.61-6.09
				l-34.43-2.41L448.38,1089.55z"/>
			<path class="st58" d="M562.9,1088.98l0.25,50.01l86.55,0.25c0,0,9.43-10.2-24.72-22.4c0,0-16.21-2.47-21.43-23.61l-3.72-6.01
				l-34.47-1.72L562.9,1088.98z"/>
			<path class="st6" d="M595.89,614.34l28.31,216.25l-17.17,258.62c0,0-23.28,12.73-46.14,0c0,0,3.22-31.78-4.29-30.68
				c-7.51,1.1,2.15-15.34,2.15-19.73s-15.02-199.45-15.02-199.45l-9.66-42.74l-6.44-181.91
				C527.63,614.71,591.19,604.12,595.89,614.34z"/>
			<path class="st6" d="M457.01,615.52c0,0-9.25,433.08-9.25,439.74s8.42,3.33,6.32,7.77c-2.11,4.44-18.95,12.21-10.53,14.42
				s4.21,2.22,4.21,2.22v8.88c0,0,27.37,12.21,42.11,1.11l87.38-473.79L457.01,615.52z"/>
			<path class="st17" d="M543.73,839.36c0,0-0.93-9.46,14.85-26.72"/>
			<path class="st59" d="M560.31,386.05l10.23,0.64c1.06,0.07,2.03,0.63,2.62,1.52l64.93,103.26l92.55-31.16
				c0.73-0.19,1.46,0.3,1.55,1.05l5.26,41.39c0.13,1.06-0.42,2.09-1.39,2.54l-114.99,45.1l-35.84-43.13l22.21,119.94
				c0,1.57-1.15,2.91-2.69,3.11c-23.23,3.14-41.85,2.23-54.74,0.76c-27.03-3.07-41.5-10-69.03-8.85
				c-13.1,0.55-24.05,2.71-31.88,4.72c0,0-1.72-1.04-3.24-2.61c-13.47-13.97,10.67-74.89,2.73-133.88
				c-2.62-19.47-9.41-43.72,3.25-68.72c2.35-4.64,4.8-8.17,6.44-10.37l59.82-31.55L560.31,386.05z"/>
			<path class="st52" d="M576,305.28c1.74,0.8,20.76,66.88-15.73,65.49l-0.63,29.96c0,0-30.83,18.81-41.52-20.9l0.63-41.8
				C518.75,338.02,523.16,280.89,576,305.28z"/>
			<path class="st60" d="M592.99,289.95c0,0-12.58,20.2-27.68,20.9c-15.1,0.7-18.24,0.7-18.24,6.97c0,3.77-0.46,6.54-0.82,8.14
				c-0.13,0.56-0.88,0.66-1.14,0.15c-1.94-3.81-7.65-13.37-13.77-8.29c-7.55,6.27,1.89,15.33,1.89,15.33s-3.15,25.78-12.58,22.99
				c-9.44-2.79-23.28-53.65-17.62-66.19s36.49-20.9,42.15-25.78s11.32-10.45,13.84-4.88c2.52,5.57,7.55,0.7,15.73,4.18
				c8.18,3.48,3.77,16.72,10.07,16.72C591.1,280.2,593.62,286.47,592.99,289.95z"/>
			<rect x="562.34" y="415.56" class="st61" width="204.38" height="156.58"/>
			<rect x="562.34" y="415.56" class="st62" width="52.74" height="156.39"/>
			<path class="st52" d="M570.32,569l25.36,2.75c0,0,23.59-25.96,28.25-23.93s-6.1,26.51-6.1,26.51s17.61,7.1,20.37,4.25
				s17.56-16.07,17.27-10.36c-0.21,4.05-4.35,13.94-6.73,19.33c-1.04,2.35-2.82,4.27-5.07,5.48l-23.32,12.54
				c-1.58,0.85-3.43,1.02-5.14,0.48l-16.53-5.25l-41.27,5.1L570.32,569z"/>
			<path class="st63" d="M496.47,446.87L496.47,446.87c-1.57-0.44-6.1,71.06-7.28,90.17c-0.17,2.72,1.56,5.18,4.17,5.93l76.88,22.17
				c0.83,0.24,1.31,1.1,1.09,1.93l-10.39,39.32c-0.24,0.92-1.14,1.5-2.07,1.34l-123.1-20.86l12.81-134.59l0.76-0.09"/>
			<path class="st64" d="M449.86,619.36c12.88-4.48,26.59-7.89,40.31-7.26c8.49,0.39,16.69,3.07,24.95,4.89
				c18.08,3.98,36.4,7.34,54.82,9.23c6,0.62,12.06,1.1,18.1,0.99c3.72-0.07,8.05-0.11,11.47-1.83"/>
			<path class="st17" d="M476.75,534.23c0,0,5.06-0.26,13.84,7.55"/>
			<path class="st60" d="M533.16,322.73c0,0,0.28,3.65,3.9,6.17"/>
		</g>
		<g id="girl">
			<path class="st65" d="M1163.52,527.05c-1.94,10.03,1.07,19.9,4.83,20.64s8.05-6.23,9.86-15.74c1.97-10.39-0.61-20.97-4.37-21.71
				C1170.08,509.5,1165.46,517.03,1163.52,527.05z"/>
			<path class="st52" d="M1172.35,547.5l-20.65-8.44c-1.57-0.64-3.34-0.53-4.81,0.3c-3.8,2.15-11.08,6.09-12.3,5.4l-25.42-25.06
				c0,0,1.95-14.36,4.93-20.04c2.44-4.67,4.28-6.11,10.55-6.09c1.4,0.01,2.81,0.38,4.11,1.09l26.87,14.75
				c0.73,0.4,1.5,0.65,2.29,0.75c4.57,0.54,20.85,2.55,21.2,3.94C1179.51,515.71,1179.25,541.18,1172.35,547.5z"/>
			<path class="st66" d="M1270.3,330.76c1.63,10.61,4.53,23.32,9.78,37.13c8.57,22.57,20.13,39.48,29.38,50.85
				c0.7,1.32,1.4,2.64,2.1,3.97c-2.95,0.59-4.47,0.72-4.58,0.39c-0.3-0.93,10.52-5.5,32.48-13.69l-31.1-109.21
				C1308.36,300.2,1265.1,314.78,1270.3,330.76z"/>
			<path class="st67" d="M1440.66,1113.25l-0.55,27.07l69.09,0.37c0,0,6.49-8.91,0.59-10.32c-5.89-1.41-30.33-8.42-34-16.88
				L1440.66,1113.25z"/>
			<polygon class="st52" points="1436.91,1080.24 1440.51,1113.68 1475.64,1113.5 1467.51,1074.29 			"/>
			
				<rect x="1282.48" y="1078.97" transform="matrix(2.809928e-03 -1 1 2.809928e-03 201.1201 2393.6846)" class="st68" width="36.59" height="34.05"/>
			<path class="st69" d="M1278.63,572.04c-0.96,6.71-2.29,16.49-3.62,28.31c-7.75,68.83-5.5,116.9-4.02,175.57
				c0.35,13.96-1.56-59.39,1.69,157.18c0.92,61.63,1.75,112.22,2.31,146.2c0.02,1.17,0.71,2.2,1.75,2.6
				c4.03,1.54,9.22,3.63,15.45,3.77c9.72,0.22,28.91,1.13,31.04-5.68c0,0,10.11-19.5,13.48-30.84c2.58-8.69-13.4,2.65-10.7-5.4
				c2.7-8.05,16.14-26.81,8.13-33.54c-8.02-6.74-9.37-1.37-9.34-10.77s3.58-327.58,11.61-323.53c8.02,4.05,71.95,322.06,71.4,331.82
				c-0.63,11.06,2,19.87,3.97,18.81c13.32-7.19,6.68,5.39,5.31,16.13c-1.2,9.39,1.72,13.66,7.85,11.9c1.57-0.45,3.19,0.52,3.53,2.11
				l5.92,27.65c8.58,1.33,15.79,1.66,21.15,1.66c12.21,0,9.98-0.31,15.62-0.96c5.79-0.67,7.42-1.84,6.4-7.72
				c-1.17-6.76-2.39-13.5-3.59-20.26c-2.29-12.95-4.58-25.9-6.86-38.85c-4.19-23.74-8.36-47.48-12.52-71.22
				c-6.89-39.31-13.73-78.63-20.49-117.96c-5.04-29.35-10.04-58.7-14.94-88.08c-3.41-20.49-6.78-40.99-10.01-61.5
				c-2-12.73-3.98-25.47-5.71-38.24c-0.82-6.05-1.78-12.16-2.04-18.27c-0.01-0.31-0.02-0.62-0.03-0.93
				c-0.02-1.83,0.1-13.32-2.89-28.31c-2.11-10.59-4.97-18.87-6.81-23.69c-19.2-0.01-38.73,0.15-58.58,0.53
				C1314.63,570.87,1296.49,571.38,1278.63,572.04z"/>
			<path class="st70" d="M1301.34,403.71c0,0-24.29-1.81-27.08,3.78s-50.22,113.17-55.07,113.16s-44.33-11.32-44.33-11.32
				s8.54,29.01-7.7,38.93c0,0,62.27,14.13,73.36,12.06c10.49-1.95,36.95-48.01,39.98-51.57c0.07-0.08-2.94,32.2-2.97,32.3
				l-5.69,19.3c-0.05,0.19,0,0.4,0.14,0.55l4.96,5.03c0.19,0.2,0.21,0.51,0.04,0.73l-4.52,5.83c-0.03,0.04-0.03,0.09,0.01,0.13
				l2.7,2.74c0,0,74.84,9.3,115.77-3.17l5.39-5.41c0.41-0.41,0.27-1.11-0.27-1.33l-5.37-2.18c-0.21-0.09-0.28-0.35-0.13-0.53
				l5.85-7.04c0.52-0.63,0.79-1.43,0.75-2.25c-0.45-9.13-0.96-64.9,13.55-110.61l7.85-33.48l-54.15-18.41l-8.34,6.27L1311.69,409
				L1301.34,403.71z"/>
			<path class="st67" d="M1318.09,1113.49l1.04,27.06l-69.87-0.2c0,0-5.84-6.94,0.02-8.46s30.17-8.97,33.69-17.51L1318.09,1113.49z"
				/>
			<path class="st52" d="M1272.77,320.63c0,0,7.32,49.64,19.93,54.6c12.61,4.96,21.7-2.69,23.43,1.51
				c1.73,4.2,6.09,18.48,6.09,18.48l-20.76,8.42c0,0,2.53,20.83,6.75,23.33c4.21,2.49,29.34,6.2,39.29-0.61
				c9.95-6.81,13.5-15.96,13.5-15.96l-11.2-16.22l0.72-74.12l-43.83-27.46L1272.77,320.63z"/>
			<path class="st71" d="M1333.96,334.16c0,0,0.6,9.15-5.59,12.09"/>
			<path class="st72" d="M1287.33,433.5c-3.38,6.23-6.68,12.5-9.93,18.8c-2.44,4.73-4.91,9.45-7.26,14.22
				c-2.05,4.18-5.36,9.16-5.47,13.96c-0.07,2.94,2.15,5.82,3.53,8.3c1.65,2.96,3.3,5.91,4.78,8.96c3.25,6.71,6.01,14.17,5.49,21.77"
				/>
			<path class="st72" d="M1276.95,565.93c0,0,63.04,10.75,111.66-2.04"/>
			<line class="st25" x1="1340.22" y1="598.13" x2="1336.31" y2="669.04"/>
			<line class="st25" x1="1328.8" y1="610.35" x2="1333.71" y2="666.61"/>
			<path class="st25" d="M1293.25,579.2c0,0-2.33,28.97-17.55,34.61"/>
			<path class="st25" d="M1357.38,580.2c0,0,8.79,27.32,25.47,31.52"/>
			<path class="st72" d="M1218.58,521.52c0,0,3.57-0.05,8.54,6.1"/>
			<g>
				<path class="st73" d="M1163.27,515.39l-15.78,27.72c-0.43,0.75-1.36,1.04-2.11,0.66l-51.13-25.84c-0.82-0.41-1.1-1.45-0.61-2.26
					l15.84-26.02c0.43-0.71,1.32-0.99,2.05-0.64l51.07,24.14C1163.42,513.55,1163.73,514.57,1163.27,515.39z"/>
				<path class="st74" d="M1159.12,515.15l-14.33,24.95c-0.39,0.68-1.2,0.96-1.85,0.64l-43.83-21.76c-0.7-0.35-0.92-1.26-0.48-1.99
					l14.35-23.45c0.39-0.64,1.17-0.9,1.8-0.61l43.81,20.25C1159.3,513.51,1159.54,514.42,1159.12,515.15z"/>
			</g>
			<path class="st52" d="M1139.39,497.77c-1.66-1.35-3.82-1.75-5.85-1.09c-4.16,1.35-10.98,3.65-12.07,4.63
				c-1.6,1.42,1.52,2.92,6.37,3.6c3.98,0.56,15.91,1.14,20.73,1.63c0.52,0.05,0.79-0.67,0.38-1.01L1139.39,497.77z"/>
			<g>
				<path class="st52" d="M1111.37,524.11l2.41,8.09c0.36,1.22,1.2,2.25,2.27,2.8l17.38,8.93c1.05,0.54,2.22,0.62,3.24,0.21
					c3.11-1.24,9.6-3.93,9.23-4.75c-0.49-1.07-7.3-11.54-7.66-12.34c-0.3-0.66-11.43-6.38-15.4-8.41c-0.89-0.45-1.87-0.49-2.72-0.1
					l-8.01,3.68C1111.45,522.52,1111.14,523.32,1111.37,524.11z"/>
				<path class="st52" d="M1123.37,522.92c0,0-4.71,3.29-5.18,5.17c-0.47,1.88,0,7.28,0,7.28"/>
				<path class="st52" d="M1129.26,527.62c0,0-4.48,3.29-4.71,4.46c-0.24,1.17,0.47,7.28,0.47,7.28"/>
				<path class="st52" d="M1136.1,532.56c0,0-4.24,1.17-4.24,2.58c0,1.41,0,7.52,0,7.52"/>
			</g>
			<path class="st65" d="M1374.81,595c-0.13,0.86-1.33,14.28,20.98,25.46c0.11,0.05,0.23-0.04,0.2-0.16
				c-0.77-2.38-6.3-18.17-20.67-25.68C1375.3,594.61,1374.82,594.98,1374.81,595z"/>
			<g>
				
					<rect x="1090.1" y="814.56" transform="matrix(0.1521 -0.9884 0.9884 0.1521 107.8645 1916.5126)" class="st75" width="161.66" height="161.66"/>
				
					<rect x="1016.17" y="820.09" transform="matrix(0.1557 -0.9878 0.9878 0.1557 27.9376 1824.4099)" class="st76" width="130.1" height="151.55"/>
				<g>
					<ellipse class="st77" cx="1355.75" cy="636.77" rx="14.8" ry="14.78"/>
					<path class="st77" d="M1339.52,637.05"/>
					<path class="st77" d="M1303.02,707.62l-43.29,265.94c-1.3,7.97-9.11,13.45-17.48,12.26L937.1,942.31
						c-15.06-2.15-26.73-13.68-28.44-28.1l-21.65-182.68c-1.51-12.75,8.95-23.91,22.41-23.91L1303.02,707.62L1303.02,707.62z"/>
					<path class="st77" d="M1339.52,637.05l-14.36,0.49c-8.07,0.27-14.7,6.14-15.59,13.79l-6.56,56.3"/>
					<path class="st77" d="M1047.45,981.21l178.18,27.48c17.18,2.65,30.72,15.39,33.72,31.73l9.18,50.03l-299.17-3.87"/>
					<path class="st77" d="M1150.89,1116.08c0,14.68,11.54,24.74,25.55,24.74c14,0,25.16-10.06,25.16-24.74
						s-11.35-26.59-25.35-26.59C1162.24,1089.49,1150.89,1101.39,1150.89,1116.08z"/>
					<path class="st77" d="M987.61,1112.69c0,13.88,11.6,26.91,25.32,26.91s24.37-13.03,24.37-26.91s-11.12-25.14-24.85-25.14
						C998.74,1087.56,987.61,1098.81,987.61,1112.69z"/>
					<line class="st77" x1="1289.83" y1="788.83" x2="893.3" y2="767.56"/>
					<line class="st77" x1="1277.66" y1="861.34" x2="898.37" y2="822.67"/>
					<line class="st77" x1="1264.48" y1="933.84" x2="904.45" y2="875.84"/>
					<line class="st77" x1="1209.71" y1="708.59" x2="1183.35" y2="977.35"/>
					<line class="st77" x1="1091.06" y1="709.56" x2="1083.96" y2="961.88"/>
					<line class="st77" x1="979.5" y1="708.59" x2="982.54" y2="946.41"/>
				</g>
			</g>
			<path class="st52" d="M1341.33,622.66l0.9-0.85c0,0-2.29-1.39,3.19-6.51c4.41-4.12,0.1-0.61,2.93-3.07
				c2.99-2.6,25.24-13.8,25.24-13.8l6.35-3.83l18.64,14.55l-18.37,14.54l-11.41,20.71c-0.69,1.25-2.02,2.03-3.51,2.08
				c-6.58,0.2-23.1-1.46-26.21-14.92c-0.35-1.51-1.12-2.91-0.33-4.18L1341.33,622.66z"/>
			<path class="st78" d="M1361.82,419.2c0,0,23.72-30.23,32.35-25.97c8.64,4.25,80.21,138.29,74.33,156.66
				c-5.89,18.36-72.61,70.57-72.61,70.57s-9.55-20.34-21.73-25.08l43.96-44.26c0.65-0.66,0.8-1.65,0.36-2.47
				C1411.5,535.59,1357.22,433.33,1361.82,419.2z"/>
			<path class="st72" d="M1419.23,550.36c0,0,6.05-2.33,11.96,0.95"/>
			<path class="st79" d="M1305.67,305.92c0.18-1.43-13.68,31.22-33.24,29.54l-2.66-0.31c-0.33-0.04-0.44-0.47-0.16-0.65
				c2.75-1.85,11.56-7.98,12.66-11.46c1.31-4.13-2.75-2.27-7.26,0.97c-4.5,3.24-6.28,6-12.67,3.76s-4.78-18.09,0.56-27.46
				c5.26-9.24,29.19-25.38,47.86-21.87c0.02,0,0.03,0.01,0.05,0.01l10.38,3.09c0.04,0.01,0.07,0.02,0.1,0.02s0.05,0,0.06-0.01
				c12.66-2.65,22.12,12.8,27.24,21.55c6.35,10.84,13.76,21.62,24,29.15c9.79,7.2,23.12,6.08,33.13,13.75
				c6.28,4.81,10.78,11.77,17.5,15.94c1,0.62,1,0.49,4.88,2.47c10.12,5.16,15.18,7.74,17.13,9.12c11.96,8.4,12.4,27.26,12.46,29.86
				c0.08,3.35,0.19,12.52-4.76,21.23c-10.99,19.34-41.06,26.12-62.28,18.42c-12.95-4.7-21.41-14.37-33.11-27.74
				c-2.78-3.18-4.96-6.11-6.62-9.95c-2.13-4.93-1.98-10.55-3.65-15.65c-2.07-6.31-6.74-11.37-10.36-16.94
				c-6.67-10.28-4.99-17.08,1.08-26.16c2.64-3.95,5.2-11.4,2.22-15.96c-2.49-3.8-7.93-3.21-11.29-1.09c-5,3.15-6.17,9.85-5.53,15.41
				c0.03,0.29-0.26,0.5-0.51,0.36C1319.39,343.42,1302.37,332.1,1305.67,305.92z"/>
		</g>
		<line class="st25" x1="90" y1="1138.43" x2="1567.57" y2="1140.96"/>
	</g>
</g>
</svg>
